# xmcd
#
# Track frame offsets:
#	150
#	12327
#	25222
#	37627
#	49465
#	61162
#	70767
#	78837
#	94592
#	105415
#	124742
#	140827
#	153562
#	183067
#	195542
#	206497
#	220292
#	229567
#
# Disc length: 3251
#
# Revision: 2
# Processed by: cddbd v1.5.1PL0 Copyright (c) Steve Scherf et al.
# Submitted via: dBpowerAMP V4.0
# Normalized: r0:TSWAP
#
DISCID=e80cb112
DTITLE=Various Artist - The Soul Box - CD4
DYEAR=1900
DGENRE=Soul
TTITLE0=Mary Wells - My Guy
TTITLE1=Sam and Dave - I Thank You
TTITLE2=Aretha Franklin - Chain Of Fools
TTITLE3=The Shirelles - Thank You Baby
TTITLE4=Sam Cooke - Everybody Likes To Cha Cha Cha
TTITLE5=Wilson Pickett - I'm Gonna Love You
TTITLE6=Ike and Tina Turner - My Babe
TTITLE7=Percy Sledge - Just Out Of Reach
TTITLE8=Lee Dorsey - Ya Ya
TTITLE9=Jackie Wilson - Danny Boy
TTITLE10=Harold Melvin and The Blue Notes - Wake Up Everybody
TTITLE11=The Dells - Oh What A Night
TTITLE12=Solomon Burke - Let Your Love Flow
TTITLE13=James Brown - Just You And Me Darling
TTITLE14=Ben E. King - I Who Have Nothing
TTITLE15=Etta James - Trust In Me
TTITLE16=Gladys Knight and The Pips - Every Beat Of My Heart
TTITLE17=Betty Harris - Cry To Me
EXTD=
EXTT0=
EXTT1=
EXTT2=
EXTT3=
EXTT4=
EXTT5=
EXTT6=
EXTT7=
EXTT8=
EXTT9=
EXTT10=
EXTT11=
EXTT12=
EXTT13=
EXTT14=
EXTT15=
EXTT16=
EXTT17=
PLAYORDER=
